<svg width="24" height="24" viewBox="0 0 24 24" fill="none" xmlns="http://www.w3.org/2000/svg">
<path d="M8.69861 20.5252L8.71933 20.5142C8.70608 20.4892 8.69955 20.4611 8.70036 20.4328C8.70118 20.4045 8.70931 20.3768 8.72397 20.3526C8.73863 20.3284 8.75932 20.3083 8.78403 20.2944C8.80873 20.2806 8.8366 20.2733 8.86493 20.2734H8.86502H15.136C15.1643 20.2734 15.1921 20.2807 15.2167 20.2946C15.2414 20.3085 15.262 20.3285 15.2766 20.3528C15.2912 20.377 15.2993 20.4046 15.3001 20.4329C15.3009 20.4611 15.2944 20.4891 15.2812 20.5141C14.9623 21.1069 14.4889 21.6023 13.9113 21.9478C13.3336 22.2933 12.6731 22.476 12 22.4766C11.327 22.4759 10.6666 22.2932 10.0891 21.9477C9.51145 21.6022 9.03812 21.1068 8.71925 20.5141L8.69861 20.5252ZM8.69861 20.5252C9.01949 21.1216 9.49579 21.6201 10.077 21.9678C10.6582 22.3155 11.3227 22.4994 12 22.5L15.3019 20.5252C15.317 20.4966 15.3245 20.4646 15.3236 20.4322C15.3227 20.3999 15.3134 20.3684 15.2967 20.3407C15.28 20.313 15.2564 20.2901 15.2283 20.2742C15.2001 20.2583 15.1683 20.25 15.136 20.25H8.86502C8.83264 20.2499 8.80078 20.2582 8.77255 20.274C8.74432 20.2899 8.72067 20.3128 8.70392 20.3405C8.68716 20.3682 8.67787 20.3997 8.67694 20.4321C8.67601 20.4645 8.68347 20.4965 8.69861 20.5252ZM20.3815 15.7359L20.3815 15.7359C20.417 15.7787 20.4533 15.8229 20.49 15.8675C20.53 15.9161 20.5704 15.9653 20.6107 16.0139C20.8089 16.2532 20.9343 16.5443 20.972 16.8528C21.0098 17.1612 20.9583 17.474 20.8237 17.7541L20.8237 17.7541C20.5376 18.3522 19.9339 18.7252 19.2422 18.7252H4.76299C4.06794 18.7252 3.46007 18.3516 3.17494 17.7509L3.17491 17.7508C3.04091 17.4708 2.98994 17.1583 3.02802 16.8502C3.0661 16.5421 3.19164 16.2514 3.38978 16.0125L3.38992 16.0123C3.45802 15.9286 3.52505 15.8478 3.59108 15.7682C3.6004 15.7569 3.60971 15.7457 3.619 15.7345L3.619 15.7345L3.61916 15.7343C4.13506 15.1116 4.55135 14.6091 4.83764 13.8194C5.12378 13.0301 5.27955 11.9555 5.27955 10.1883C5.27955 8.58822 5.60002 7.2694 6.24861 6.21543C6.89707 5.16167 7.87464 4.3708 9.19222 3.82839L9.19228 3.82855L9.19473 3.82718C9.21127 3.81793 9.22616 3.80599 9.23876 3.79184L9.24058 3.79346L9.24372 3.78296C9.64863 2.42845 10.7549 1.52344 12 1.52344C13.2451 1.52344 14.3519 2.42845 14.7568 3.78436L14.7547 3.78499L14.7614 3.7929C14.7741 3.80768 14.7893 3.82009 14.8063 3.82954L14.8062 3.82969L14.8088 3.83074C15.9381 4.29537 16.7937 4.92352 17.4264 5.7508L17.4264 5.75082C18.2845 6.87067 18.721 8.36521 18.721 10.1897C18.721 11.9563 18.877 13.0304 19.1632 13.8197C19.4492 14.6082 19.8646 15.1107 20.379 15.7329L20.3815 15.7359Z" fill="#232321" stroke="#232321" stroke-width="0.046875"/>
</svg>
